<?xml version="1.0" standalone="no"?>
<!DOCTYPE svg PUBLIC "-//W3C//DTD SVG 20010904//EN"
 "http://www.w3.org/TR/2001/REC-SVG-20010904/DTD/svg10.dtd">
<svg version="1.0" xmlns="http://www.w3.org/2000/svg"
 width="512.000000pt" height="512.000000pt" viewBox="0 0 512.000000 512.000000"
 preserveAspectRatio="xMidYMid meet">
<metadata>
Created by potrace 1.14, written by Peter Selinger 2001-2017
</metadata>
<g transform="translate(0.000000,512.000000) scale(0.100000,-0.100000)"
fill="#000000" stroke="none">
<path d="M0 2560 l0 -2560 2560 0 2560 0 0 2560 0 2560 -2560 0 -2560 0 0
-2560z m3237 1842 c29 -18 33 -70 33 -408 l0 -344 198 0 c212 0 269 -9 339
-53 18 -12 162 -163 319 -335 l285 -312 -3 -658 -3 -657 -23 -43 c-35 -66 -88
-119 -150 -149 l-57 -28 -297 -3 -298 -3 0 313 c0 346 -6 390 -61 501 -37 73
-132 170 -205 209 -106 57 -116 58 -754 58 -638 0 -648 -1 -754 -58 -73 -39
-168 -136 -205 -209 -55 -111 -61 -155 -61 -501 l0 -313 -297 3 -298 3 -57 28
c-62 30 -115 83 -150 149 l-23 43 -3 657 -3 658 287 315 c265 292 292 318 353
348 l65 32 218 3 218 3 0 350 c0 347 3 381 34 401 15 10 1338 10 1353 0z m17
-2497 c49 -24 66 -61 66 -149 l0 -76 249 -335 c138 -184 255 -343 260 -354 16
-29 13 -49 -9 -71 -19 -19 -33 -20 -266 -20 -193 0 -245 -3 -241 -12 3 -7 15
-37 28 -67 21 -49 21 -56 8 -80 l-15 -26 -774 0 -774 0 -15 26 c-13 24 -13 31
8 80 13 30 25 60 28 66 4 10 -48 13 -241 13 -233 0 -247 1 -266 20 -22 22 -25
42 -9 71 5 11 122 170 260 354 l249 335 0 76 c0 87 16 125 64 148 47 23 1342
24 1390 1z"/>
<path d="M1687 3302 c-21 -23 -22 -52 -3 -78 14 -19 35 -19 876 -19 841 0 862
0 876 19 19 27 18 60 -4 79 -17 16 -92 17 -874 17 -816 0 -856 -1 -871 -18z"/>
<path d="M2261 1196 c-7 -8 -11 -30 -9 -48 5 -54 22 -58 308 -58 286 0 303 4
308 58 6 63 9 62 -308 62 -238 0 -290 -2 -299 -14z"/>
<path d="M2136 1004 c-21 -20 -20 -68 1 -85 13 -11 93 -14 423 -14 443 0 440
0 440 56 0 60 8 59 -440 59 -358 0 -411 -2 -424 -16z"/>
</g>
</svg>
